<?xml version="1.0" standalone="no"?>
<!DOCTYPE svg PUBLIC "-//W3C//DTD SVG 20010904//EN"
 "http://www.w3.org/TR/2001/REC-SVG-20010904/DTD/svg10.dtd">
<svg version="1.0" xmlns="http://www.w3.org/2000/svg"
 width="505.000000pt" height="494.000000pt" viewBox="0 0 505.000000 494.000000"
 preserveAspectRatio="xMidYMid meet">
<metadata>
Created by potrace 1.16, written by Peter Selinger 2001-2019
</metadata>
<g transform="translate(0.000000,494.000000) scale(0.100000,-0.100000)"
fill="#000000" stroke="none">
<path d="M3035 3674 c-291 -41 -549 -81 -573 -90 -111 -41 -204 -146 -242
-272 -25 -84 -40 -294 -28 -382 17 -127 101 -256 198 -305 81 -41 138 -45 655
-45 457 0 496 1 547 19 75 26 123 58 184 123 61 65 98 132 118 219 21 86 49
431 41 488 -18 122 -98 236 -198 285 -88 44 -124 42 -702 -40z m476 -244 c18
-10 19 -23 19 -219 0 -244 2 -238 -102 -248 -99 -9 -98 -12 -98 226 0 192 1
198 23 219 29 27 123 40 158 22z m-820 -70 c18 -10 19 -23 19 -219 0 -242 3
-235 -98 -247 -52 -6 -66 -4 -82 11 -19 17 -20 32 -20 210 0 243 -3 238 148
254 7 0 22 -4 33 -9z"/>
<path d="M3088 1965 c-427 -23 -439 -24 -495 -50 -93 -42 -154 -111 -188 -211
-24 -70 -40 -339 -24 -413 24 -115 97 -214 194 -261 49 -24 59 -25 380 -33
182 -4 413 -6 515 -4 235 4 270 15 376 121 98 99 112 137 130 376 15 190 11
239 -20 315 -21 50 -93 123 -151 153 -44 23 -63 26 -165 28 -63 2 -312 -8
-552 -21z m398 -197 c-3 -13 -6 -33 -6 -45 0 -23 -1 -23 -155 -23 l-155 0 11
27 c5 14 8 32 5 39 -6 14 37 19 208 22 97 2 98 2 92 -20z m-16 -190 c0 -13 -3
-33 -6 -45 -6 -22 -10 -23 -139 -23 -74 0 -140 2 -148 6 -9 3 -12 15 -10 32 9
54 3 52 158 52 144 0 145 0 145 -22z m-20 -203 l0 -45 -112 0 c-62 0 -130 3
-151 7 -36 5 -38 8 -35 37 1 17 10 34 18 38 8 4 75 7 148 7 l132 1 0 -45z
m-14 -166 c-3 -17 -6 -38 -6 -45 0 -11 -26 -14 -127 -13 -156 1 -168 4 -168
44 0 38 16 42 184 44 l124 1 -7 -31z"/>
<path d="M4195 759 c-63 -10 -329 -36 -455 -45 -52 -4 -89 -9 -82 -11 6 -3 12
-12 12 -22 0 -15 10 -17 78 -15 100 3 216 11 375 26 133 12 150 19 131 57 -8
14 -17 16 -59 10z"/>
</g>
</svg>
